<svg id="Layer_1" data-name="Layer 1" xmlns="http://www.w3.org/2000/svg" viewBox="0 0 283.36 167.14"><defs><style>.cls-1{fill:#f1f2f2;}.cls-2{fill:#e6e7e8;}</style></defs><path class="cls-1" d="M153.82,174.21s19.58-64.77,71.76-15.5c0,0,26.1-50.38,61.23-11.63,0,0,67.24-17.71,46.66,60.35,0,0,31.62-6.64,22.59,25.47s-35.63,24.36-35.63,24.36-48.18,14.95-62.23,3.32c0,0-54.7,19.38-75.77-3.32,0,0-37.14,12.18-49.68-6.64,0,0-22.58-17.17-11-43.19C121.71,207.43,118.2,160.92,153.82,174.21Z" transform="translate(-74.32 -132.43)"/><path class="cls-2" d="M110.5,212.43s20-60,73.33-14.36c0,0,26.67-46.66,62.57-10.77,0,0,68.71-16.41,47.69,55.9,0,0,32.31-6.15,23.08,23.59s-36.41,22.56-36.41,22.56-49.24,13.85-63.59,3.08c0,0-55.9,17.95-77.44-3.08,0,0-37.95,11.29-50.77-6.15,0,0-23.08-15.9-11.28-40C77.68,243.2,74.09,200.12,110.5,212.43Z" transform="translate(-74.32 -132.43)"/></svg>