<svg id="Layer_2" data-name="Layer 2" xmlns="http://www.w3.org/2000/svg" viewBox="0 0 432 432"><defs><style>.cls-1,.cls-2{fill:#231f20;}.cls-1,.cls-2,.cls-3{stroke:#231f20;stroke-linecap:round;stroke-linejoin:round;}.cls-1,.cls-3{stroke-width:0.5px;}.cls-2{stroke-width:0.25px;}.cls-3{fill:none;}.cls-4,.cls-5{fill:#ed1c24;}.cls-5{opacity:0.7;}.cls-6{fill:#fff200;}</style></defs><path class="cls-1" d="M40.45,224.86l-.41.46-.63-.17-.51-.52.34-1,.46-.52.86-.28h.63a3.12,3.12,0,0,0,.63.28,6.45,6.45,0,0,1,1,.69l.58.92.34,1.37.29,1.78a8.38,8.38,0,0,0,.34,1.49c.17.35.23,1.38.4,1.66s.52,1.72.75,2a6.18,6.18,0,0,1,.46,1.55l.57,1.55.34,1.54.06,2.41.06,1.72L46.92,244l.81,1.83,1.2,2.12,1.78,1.84,2.75,1.66h6.19l3.84.06,4.36-.12,7-.11,6.36.11h6.19l4.19-.11s7.51-1.55,7.68-8.6-4.87-7.45-4.87-7.45L93,235.06H91.75l-.69.81-.45,1.26.63,1.43.91.23,1.21.06.46-.4.57-.46.57.4s1.84,4.58-1.89,5.22l-2,.4-4-.4H85.9L84.18,241l-1.43-2a9.66,9.66,0,0,0-1.6-1c-.23,0-3,.23-3,.23L77,237.24l-.75-1,0-.23.91-.23,1.32-.11,1.09-.29,1.72-.4,1-.29.91-.23-.17-.86,1.55.4,1.55-.4.8-.46.51-1.54.18-1.38-1.15-1-1.32-.52-1,.4-.63.86-.29.58L81.55,230l-2,.52-2,.17-2-1L74.9,228l-.4-1-.86-.86-.4-.57-.92-.52-1-.57.46-.46.17-.46.46-.57.58-.29-.29-1.37.23-.81.63-.63-.57-1,.17-1,.57-1,.52-.28.63-1.61-.23-.91-.57-1-.29-2L73,209.32l-1.49-2-1-.63-1-1-1.37-.29-1.44-.29L64,206.52l-.63.57-.69.29-.69.68-1.09.58-1,1-.92,1-.51.63-.92.23-1-.29-1.21-.51-.4-.63.52-.52a2.83,2.83,0,0,0,.46.06c.17,0,.45-.23.63-.23a3.47,3.47,0,0,0,.8-.4s.46-.4.34-.75a11.89,11.89,0,0,1-.23-1.37,2.21,2.21,0,0,0-.51-.46,2.85,2.85,0,0,0-1.21-.12c-.23.12-1,.63-1,.63l-.69.86L53.57,209l-.28,1.38v1.09l.28.8.29,1,1.2.46,1.26.69h1c.17,0,1.49-.12,1.49-.12l2.23.06,1.21-.28.63.05-.06.92-.06,1,.12.75-1.09.68-.75.75v.69a5.24,5.24,0,0,1-.11.74l.23,1,.4.46.11.57-.57.17a4.14,4.14,0,0,0-.69.57c-.17.23-.74,1.09-.74,1.09a3.6,3.6,0,0,1,.17,1.27c-.06.57-.23.91-.23,1.08s-.52.69-.52.69l-.57-.69-.11-1.08a4,4,0,0,1,.23-1.32c.17-.18.51-.52.51-.75s-.23-1.09-.06-1.2a2.64,2.64,0,0,0,.46-.58.23.23,0,0,0-.17-.34c-.29-.06-1.72-.23-1.72-.23l-1.78-.17,1.78-1.72-2.41-1.83-.63,2.92L54,217.24l-2,1.26,1.21,1.14-2.87-.17-.06,1.78-.91-.35-.75-5.21s1.2-2.64,2.64.11,1.37-1,1.37-1l-1.09-1.55-1.49-.52-1.49.41s-2,.57-.68,5.21l-.12,1.09-1-.8s-6.25-3.84-9.92,2.69,4.18,5.1,4.18,5.1l.63-1.08.06-1.09-1.14-.69Z"/><path class="cls-1" d="M55.64,251.28l-3.93,2.89-3.64-.08s-6.65-2.41-7.51-4.59-5.13-1.23-5.13-1.23l-.54.77-.12,1,1.15.86,1.63.28,1.2.12s6.31,6,8.4,5.24h56s10.12-1.63,9.8-7.19-3.69-6.56-3.69-6.56-6.09-2.14-6.25,3.89c-.07,2.49,0,.12,0,.12l0,1.23.54.32,1,0,.74-.28.32-.58.31-1,.4-.66s4.7-2.35,4.16,3.84c0,0-2.55,4.65-7.86,4.56l-7.19.31-1.49-.11-1.58-.32-3.41-2.57H86.51L90,254.63l-10,.17-2.06-3.55-2.78,0,2.66,3.49-10.26,0,1.72-3.21.17-.29H67.07l-1.72,3.35-10.57-.14,3.32-3.15Z"/><path class="cls-2" d="M155.85,214.53l.1.54.19.34.8,1.05.5.47.82.88,1.2.6.68.4.71.55,1,.55.47.7.58.78.22.5-.24.39h-.6l-.42-.3-.73-.4-.76-.19-.62.11-.69.06.18.88.4.56.34.53.6.49.55.09.31-.05,0,.38-.41.45a3.49,3.49,0,0,1,0,.77,7,7,0,0,0-.19.7l-.16,1,.1.88s.09,1.35.09,1.44a6,6,0,0,1,0,.94c0,.15-.31.91-.33,1.05a7.78,7.78,0,0,1-.89,1.19c-.19.21-1.11,1-1.11,1s-.78.49-.89.52-.82.36-1,.45-.81.44-.81.44l-1,.36s-1.06.22-1.2.23l-1.84,0c-.08,0-1.72-.06-1.72-.06l-1.56-.1-2.2,0-1.41,0-1.33-1-1-.5s-.66-.46-.8-.42a8.22,8.22,0,0,1-1.12-.18,7.26,7.26,0,0,0-.11.92c0,.09.24.88.24.88l.59.84.69.11h.26s-.45.25-.53.31-.61.63-.61.63l-.68,1.29-.48,1.51s-.85,4-2,4.26l-3,.5-1,.16-.51.14-.72,1.32-.49,1.15-.43,1.36-.47,1.06s-.54.74-.67.89a3.3,3.3,0,0,1-.91.33l-1.18-.07-.21.36-.15.41-.08.86.15,2.09.77-.09,1.17-.74.22-.36.21-.35.72-.55.67-.4.54-.72.54-.83.51-.82.39-.79.59-.89.52-.63,1.33-.43,3.77-1,.69-.12,0,1.41.1,2.09-.5,1-1,.85-.54.83-.54.57a3.35,3.35,0,0,1-.41.51l-.79.4-.3.16-.08.89L137,256l.3.93.46.16.52-.63.37-.62.72-.52.35-.68.68-.72.91-.87.39-.79.69-.69.57-1.32.37-.85.42-.73.38-1.14.13-1,1.38.14,1-.07,1.56-.53,1.17-.75,1.06-.67.82-.27s.89-.1,1-.1,1.21.08,1.21.08l1.07.24,1.15.09,1,.3.72.12,1.46-.13,1.93.06.76.39,1,.42s.68.34.79.36.83.54,1,.53a5.19,5.19,0,0,1,1,.3l.82.39.39.33v.58l-.14.75-.65.94-.36.82a3.14,3.14,0,0,0-.41.45c0,.09-.45.2-.45.2l-.47-.13-.27-.24-.43,0-.73.26-.32.56s-.37.85-.39.94a6.29,6.29,0,0,0,.07.83l.8.07.83-.12.55-.45.67-.44.76-.35a1.89,1.89,0,0,0,.42-.27c.05-.09.62-.92.62-.92l.45-.77a6.76,6.76,0,0,0,.57-.71,6.88,6.88,0,0,1,.43-.68l.34-.65.24-.38a1.5,1.5,0,0,0,.07-.35,5.72,5.72,0,0,0-.2-.62l-.8-.65-.62-.32-.62-.4-.45-.38-.27-.39,0-.29.22-.21.71,0,2.75-.12.42.38.15.65a4.46,4.46,0,0,0,0,.69c0,.11.23.71.23.71s.15.79.15.88.05.43.14.51a2.28,2.28,0,0,1,.23.56l.06.8-.24.42-.42.19-.33.33-.18.46s0,.75.07.83a2.75,2.75,0,0,0,.45.47c.12.11.59.46.59.46l.59.2.51-.13.24-.44,0-.58L172,250l-.09-1.23-.24-4.78,0-.86-.21-.91-.54-.55-1-.33-1.18.11-.54,0-.9-.22-.64-.31.66-.46s3.37-4.89-.27-9.26l-.34-1.16-.24-.88.22-.78.65-.18,1.15,0,.87.16a6.21,6.21,0,0,0,1-.27l.91-.3.57-.66s.32-.61.28-.76a9.21,9.21,0,0,0-.38-.84l-.62-.4-.95-.05-1-.15a1.85,1.85,0,0,1-.53-.12c-.11-.08-.51-.5-.51-.5l-.65-.54-.66-.52-.2-.7v-.23l.77-.18.56-.33.6-.14.64-.22.63-.57.55-.41.4-.55.55-.52.62-.68.23-.74-.05-.34-.72.11-.55.67-.5.79a3.92,3.92,0,0,1-.54.6,7.46,7.46,0,0,0-.74.72l-.57.1-.16-.26a3.5,3.5,0,0,1,.17-.39c.07-.11.07-.23.18-.35s.29-.24.29-.36-.15-.75-.15-.75l-.6.29-.43.71.06.49s-.24.55-.31.67-.4.47-.51.48-.88.12-.88.12l-.6.29-.64.26-.77-.27-.58-.93-.65-.78-.3-.67.06-.54.32-.44.66-.68.51-.48.63-.48.56-.37.52-.3-.3-.75-.83.27-.59.52-.82.46-.81.69a4.23,4.23,0,0,0-.46.78,3.05,3.05,0,0,1-.17.55l.1.45-1-1-1.21-.45-.75-.65-.23-.79.16-.59,0-.87,0-.85a5.76,5.76,0,0,0,.12-.81c0-.19,0-.57,0-.72l0-.54-.39-.13-.41.21v.49l0,.58a5.84,5.84,0,0,1,.13,1,5.78,5.78,0,0,0,0,.84,2.76,2.76,0,0,0-.12.77l0,.72-.11.16-.6-.55-.64-.62-.08-.95-.75-.62-.23.13-.16.58Z"/><path class="cls-2" d="M142.63,209.83l.13.54.2.32.85,1,.53.43.86.84,1.23.55.7.36.74.51,1,.5.5.68.61.74.25.5-.22.39-.6,0L149,217l-.75-.36-.77-.16-.62.15-.68.09.23.87.42.54.37.51.62.46.55.06.31-.06,0,.37-.39.47a3.86,3.86,0,0,1,0,.78,5.93,5.93,0,0,0-.16.7l-.11,1,.15.88.16,1.42a5.74,5.74,0,0,1,0,.95c0,.15-.26.92-.28,1.06a7.23,7.23,0,0,1-.83,1.24c-.18.21-1.05,1-1.05,1s-.76.53-.87.57a8.42,8.42,0,0,0-.93.49c-.13.1-.79.48-.79.48l-1,.42s-1,.27-1.19.28-1.75.06-1.83.07l-1.73,0-1.56,0-2.2.16-1.4.05-1.39-.91-1-.45s-.67-.42-.81-.38a8,8,0,0,1-1.14-.12,6.43,6.43,0,0,0-.05.93c0,.08.28.86.28.86l.62.8.7.08.26,0-.51.33c-.08.07-.57.66-.57.66l-.63,1.33-.4,1.54s-.65,4-1.82,4.35l-2.93.65-1,.22-.5.16-.65,1.36-.44,1.16-.35,1.39-.42,1.08s-.5.76-.63.92a3.08,3.08,0,0,1-.88.37h-1.18l-.2.37-.13.41,0,.87.25,2.08.77-.13,1.13-.8.2-.37.19-.36.69-.59.65-.43.51-.74.49-.86.47-.85.35-.81.55-.92.48-.65,1.31-.5,3.71-1.16.68-.15.05,1.4.2,2.09-.45,1-.92.89-.49.86-.52.59a3.45,3.45,0,0,1-.38.53l-.77.45-.3.17,0,.9.16,1,.35.91.47.13.49-.65.34-.64.69-.56.31-.69.65-.75.86-.92.35-.81.65-.72.51-1.35.32-.86.39-.76.32-1.16.08-1,1.38.07,1-.13,1.53-.6,1.13-.8,1-.73.81-.31,1-.16c.14,0,1.21,0,1.21,0l1.09.18,1.15,0,1,.24.73.08,1.45-.2,1.93,0,.78.36,1,.36a7.2,7.2,0,0,0,.81.32c.12,0,.85.5,1.05.48a5.26,5.26,0,0,1,1,.25l.84.35.4.3,0,.58-.1.76-.6,1-.32.83a2.93,2.93,0,0,0-.39.47c0,.09-.44.22-.44.22l-.47-.1-.28-.23-.44,0-.72.3-.29.57s-.32.87-.34,1a7.14,7.14,0,0,0,.11.82l.81,0,.82-.16.53-.49.65-.46.74-.39a2,2,0,0,0,.4-.3l.57-.95.42-.78a7.86,7.86,0,0,0,.53-.75c0-.08.39-.7.39-.7L157,243l.22-.4a2.67,2.67,0,0,0,.06-.35c0-.08-.24-.61-.24-.61l-.83-.61-.63-.28-.64-.37-.47-.36-.3-.38-.05-.28.21-.22.71-.07,2.74-.26.44.36.18.64a5.2,5.2,0,0,0,.06.69l.27.69s.19.79.2.88a1.22,1.22,0,0,0,.16.5,2.16,2.16,0,0,1,.26.55l.1.8-.22.42-.41.21-.31.35-.16.48s.08.74.11.82a3.05,3.05,0,0,0,.48.44c.12.11.61.43.61.43l.6.18.5-.17.21-.45-.05-.57-.18-1.59-.15-1.23-.49-4.76-.08-.86-.26-.89-.57-.52-1-.28-1.17.16-.54.06-.91-.17-.66-.29.65-.49s3.11-5.05-.75-9.23l-.4-1.14-.28-.87.18-.79.64-.21,1.15-.08.87.12a7,7,0,0,0,.95-.32l.89-.35.54-.68a2.78,2.78,0,0,0,.24-.78c0-.14-.42-.82-.42-.82l-.64-.37h-1l-1-.11a1.67,1.67,0,0,1-.53-.1,6.7,6.7,0,0,1-.54-.46l-.68-.51-.68-.48-.24-.7,0-.23.76-.22.54-.36.6-.17.62-.25.6-.6.53-.43.37-.57.52-.55.59-.71.2-.75-.08-.34-.71.15-.51.7-.46.81a4.78,4.78,0,0,1-.51.63,8,8,0,0,0-.7.75l-.56.13-.18-.25s.09-.27.15-.4.06-.23.16-.36.28-.25.27-.37-.19-.75-.19-.75l-.58.33-.39.73.09.49s-.22.55-.28.68-.38.49-.49.5-.87.16-.87.16l-.58.33-.63.29-.79-.23-.62-.9-.69-.74-.33-.66,0-.54.3-.45.62-.72.49-.5.6-.52.54-.4.51-.32-.34-.73-.82.31-.56.55-.8.5-.77.73a4.52,4.52,0,0,0-.42.8,2.81,2.81,0,0,1-.14.56l.12.44-1.09-.93-1.23-.38-.78-.61-.27-.78.13-.59-.08-.88v-.84a6.08,6.08,0,0,0,.07-.82c0-.19,0-.57,0-.72l0-.54-.4-.11-.4.23v.5l0,.57a5.59,5.59,0,0,1,.17,1,7.85,7.85,0,0,0,0,.84,2.64,2.64,0,0,0-.08.78l.07.72-.1.16-.63-.51-.67-.59-.13-.95-.78-.57-.22.13-.14.59Z"/><path class="cls-2" d="M191.81,238.13l.36-.27.65-.18h.79l.79-.05.7.29.3.32.18.23.59-.66.74-.43,1.19-.45,2.26-.45c.1,0,12.16-.37,13.41-2l1.49-1.87.66-1,1.3-1.61,1.63-2.12.6-1.32.57-2.18.22-1.84.34-.46-1,.11-.88-.38-.82-.45-.44-.91-.26-.48.95-.27h1l.91-.15,1.65.54.14-.25-.11-.68-1.14-.57-.6-.08-1.8.36-1.11,0-.78-.52-1-.7-.47-.38.19-.62,1,.36.72.53.92.31.88.38.86,0,.31-.28-.84-.85-.72-.52-.59-.37-.37-.52-.61-.19h-.7l-.65-.42-.89-.84-.47-.39L214,213l.55-.2.46.68.81.33.69.7v-.76l-.51-1c-.08-.16-.33-.93-.33-.93l-.13-1.14.31-.63.42-.25.4.29.21.6.2.84.25.83.08,1.21.36.75.29.71a4.86,4.86,0,0,1,.59.42c.2.2.56.61.56.61l.3-1,0-.82.22-.44.54.14.33.59-.1.83s.07.74-.08.88a2.06,2.06,0,0,0-.31.64l.21.54.67.24.79.51.58.37.49.5.2.55.65.07.55-.21.29-.34.49-.6.27-1.15-.29-1.05,0-.64.52-.32.33.23a1.61,1.61,0,0,1,0,.81,3.13,3.13,0,0,0,.07,1.15l.23.32.52-.73.74-.41.16-.43.78-1.29.54-1h.29l.2.49-.16.78-.58,1.08-.44.89a3.06,3.06,0,0,1-.62.8c-.27.16-.88.66-.88.66l-.79.48-.81.42.08.46.73.22a3.74,3.74,0,0,0,.6.49,2.77,2.77,0,0,1,.61.54l.3.41a8,8,0,0,0,.79.51,3.34,3.34,0,0,1,.58.72l1,.19,1,.3.9.14.12.39-.37,1.28-1.12.65-1.23.26-.79.13-.75.06-.56.09-1,.22s-.5.49-.66.63a15.94,15.94,0,0,0-.84,1.59l-.17,1.43-.3,1.38,0,.93v.81l0,.59s.07,1.15.1,1.32,0,1.16,0,1.16l-.31.63-.3.63-.09.53.91.9.85,1,1,.89.92,1,.66.47.33.64,1.31,6.59-.34,1.1-.73.87-.71,1a1.88,1.88,0,0,1-.5.49c-.22.09-.78.24-.78.24l-.4-.34-.35-1.11-.12-1.43,1.37-.51.75-.36-.06-1.09-.61-1.94-.24-1.12-.1-.62-4.92-1.69s.65,1.17,1,1.7a11.75,11.75,0,0,1,.72,1.91l.45,1.32L218.46,254l-4.17.74L214,254l.47-1.06.69-.76,1-.1.69.3,1,.24,3.42-4.28.26-.22s-5.57-2.4-5.14-4c0,0-5.4,4.26-10.78,2.29l-.46,1.41-.77.65.79.91.62,1,.4.69.77,1.15.18.38.45.62,1.51.74a3,3,0,0,1,.84.5l.6.83.43.86.06.34-2.43.4-.41-.69-.48-.85-.79-.92-.94-.42-.62-.54-.6-.83-.81-.74-1.1-.69-.73-.52-.7-.41-.21,1.19,0,.82.09.57.08.51.61.89,1,.71.51.67.16,1,.58.37,1.33.65.63.66.61.88-.09.54-.44.48-2.33,0-.28-1-.23-.36-.6-.43-.61-.54-.42-1.15-.46-.68-1.56-1-1.07-.53-.42-.45V252s.38-4.07-1.55-5.2a5.4,5.4,0,0,1-2.24-7l-.66-.12a5.37,5.37,0,0,1-.82-.39l-.66-.47Z"/><path class="cls-2" d="M173.59,235.11l.38-.25.65-.14.8.05h.78l.69.33.29.34.15.23.63-.62.77-.38,1.21-.37,2.29-.31c.1,0,12.16.35,13.5-1.17l1.61-1.77.71-.94,1.4-1.52,1.75-2,.68-1.27.7-2.15.34-1.82.36-.44-1,.05-.85-.43-.8-.5-.38-.94-.22-.5,1-.21,1,.07.91-.09,1.62.64.15-.25-.07-.68-1.1-.64-.59-.11-1.82.24-1.1-.12-.75-.56-1-.76-.45-.41.23-.6,1,.42.7.56.9.37.85.43.87,0,.31-.26-.78-.9-.69-.57-.56-.4-.34-.54-.6-.23-.7,0-.62-.46-.84-.89-.45-.42.21-.77.56-.17.42.7.79.39.65.74,0-.76-.45-1c-.07-.16-.27-.95-.27-.95l-.06-1.15.34-.61.44-.22.38.31.18.62.14.85.2.84v1.21l.31.78.25.72a3.86,3.86,0,0,1,.56.46c.2.21.53.64.53.64l.36-1,.09-.81.24-.43.54.17.29.61-.15.82s0,.75-.14.88a2.05,2.05,0,0,0-.34.61l.17.56.66.28.75.55.56.41.46.53.17.56.64.1.56-.17.32-.32.51-.57.35-1.13-.22-1.07,0-.64.54-.29.32.26a1.75,1.75,0,0,1,0,.81,3.1,3.1,0,0,0,0,1.15l.2.33.57-.69.77-.37.18-.42.86-1.24.59-.93.3,0,.16.5-.21.77-.64,1-.49.85a3,3,0,0,1-.67.76c-.28.15-.92.62-.92.62l-.82.43-.83.37.05.45.72.28a2.91,2.91,0,0,0,.57.51,3,3,0,0,1,.58.58l.27.43s.57.46.75.56a3.19,3.19,0,0,1,.54.75l.94.25,1,.36.88.2.1.39-.45,1.26-1.15.58-1.25.18-.79.08-.75,0-.57.06-1,.16-.69.59a15.65,15.65,0,0,0-.94,1.53l-.26,1.41-.38,1.37-.08.93,0,.81-.06.58s0,1.15,0,1.32-.05,1.16-.05,1.16l-.35.61-.34.61-.12.53.85.95.79,1,.91.94.85,1.07.63.51.3.66.91,6.65-.41,1.08-.78.83-.77.94a1.87,1.87,0,0,1-.53.46,8,8,0,0,1-.79.19l-.38-.36-.29-1.13,0-1.43,1.4-.43.77-.31v-1.1l-.49-2-.17-1.14-.07-.63-4.81-2s.59,1.2.87,1.75a11.46,11.46,0,0,1,.6,2l.37,1.34-5.67,5.42-4.22.48-.19-.78.53-1,.73-.7,1,0,.66.34,1,.3,3.67-4.06.27-.2s-5.41-2.74-4.88-4.35c0,0-5.65,3.92-10.89,1.63l-.56,1.38-.8.6.73,1,.56,1,.36.72.7,1.19.16.39.41.65,1.46.83a3.27,3.27,0,0,1,.81.55l.55.87.38.88,0,.35-2.45.24-.36-.71-.44-.88-.73-1-.91-.48-.58-.58-.55-.86-.77-.79-1-.76-.7-.56-.68-.45-.28,1.18-.09.82.06.57,0,.51.56.92.94.77.47.7.1,1,.56.41,1.29.73.58.69.56.92-.12.53-.47.46-2.32-.17-.22-1-.21-.38-.57-.46-.58-.57-.35-1.18-.41-.71-1.5-1.11-1-.59-.39-.48.1-1.85s.62-4-1.23-5.29a5.41,5.41,0,0,1-1.82-7.08l-.65-.16a5.6,5.6,0,0,1-.79-.44l-.63-.51Z"/><path class="cls-2" d="M247.38,232.2l.86,0,1.68.08,1.32.63.92,0,1.12-.33s13.34-.08,14-1.52c0,0,6.39-4.53,6.25-8v-2L274,220l-.72-.33-1.23-.24-.58-.64-.31-1,0-.29,1.25-.23,1.44,0L275,218l.79.45-.14-.91-1.18-1-1-.72-1.63-.9-.9-.43-1-.95-.82-.85-.71-.91-.56-1.11.08-.41.45-.09.63.57.59.82.7.8.34,0a7.63,7.63,0,0,0-.14-1,7.56,7.56,0,0,1-.16-1.13l-.17-1.25.34-.73L271,208l.35.72.25,1.47,0,1.79-.05,1.33.21.5,1.68.71.85.5.73-.81.63-1.38,1.46-1,1.07-.21.21.39a2.16,2.16,0,0,1-.34.66c-.17.13-.53.56-.7.58a2.07,2.07,0,0,0-.6.34l-.74.81-.27.78-.2.42.16.5.57.53.46.65.64.8.65.12.66-.29.93-.6.44-.16.12-.58.32-.95.52-.68.43-.33.45.54-.37,1-.36.55.57-.11.69-.63.25-.43,1-.95.4-.73.45-.15.31.26-.07.58-.53,1.14-1,.89-.79.76-1.32.75-1,.43-1,0,.4.66.6.23.57.7.57.58.53.7a3.37,3.37,0,0,0,.84.45,8,8,0,0,1,1.32.57l.93.09.42.25.22.5,0,1.2-.65,1.16-1.31.17-3.9.11-1,.26-.44.84s-2.06,8,0,7.77l1.37.57,2.37.14.76.8.43,1.63.38,1.63.45.54.15,1,.62,1.21.38,1.06.27,1.7v1.33l-.55,1-.46.67-.82.42-.34-1.24-.42-.82L283,245l.5-.21.07-1.22-.21-.44-.53-.76-.61-1.73-.59-1.44-.4-.6-1.06-.31-1.83.22,1.23,1.5.43.94.51,3.18.1,3.16-.27.77-.27.89-.53,1.19-.61.92-.66.35-.6.28-.38-1-.18-2.06,1-.55.76-.41.13-1.22-.56-2.37-.28-1.24-.47-.76-.21-.39-4.19.72-.87-.1-.65-.11s-.42-.2-.66-.35-1-.54-1-.54l-.54-.35a19.07,19.07,0,0,1-15,2.64,7.58,7.58,0,0,1-7.06,5.46l-.33,1.47-.92,1.34s-.53,1.78-.86,2-.69,1.27-.69,1.27l-.35.66,0,.92s-.44.91-.61.92a5.63,5.63,0,0,0-.73.24l-.6-.24-.28-1.3-.27-1.12.44-.85.71-.46.95-1.53.67-1.61.45-1.36.42-1.19.36-1.07.07-.52,1.25-.23.55-.28.76-.47.4-.66-1.51.47-.93.49-1.3.29-1.16.56-.53-.13-.73,2.14-.53,1.14-.52.62-.52.68-.59,1.09-.55,1-.17,1.39-.66.93-.79-.45-.41-1.41-.27-1.12.15-.82.72-.41s3.42-3.53,3.24-6.33l.19-1,1.05.08,1.74-.45,1.34-1.78,1.11-2.46.44-1.48.45-.84.19-1.06.74-1.44a1.74,1.74,0,0,0-.49-.36,6.4,6.4,0,0,1-1-1.07Z"/><path class="cls-2" d="M232.84,230.52l.87,0,1.67.08,1.33.63.91,0,1.13-.33s13.34-.09,14-1.52c0,0,6.39-4.54,6.26-8v-2l.48-1.08-.72-.34-1.23-.23-.57-.64-.32-.95,0-.29,1.25-.23,1.44,0,1.15.64.79.45-.14-.91-1.18-1-1-.72-1.63-.89-.91-.44-1-.94-.82-.85-.72-.92-.55-1.1.07-.41.46-.1.62.58.59.81.71.8.34,0a7.83,7.83,0,0,0-.15-1,9.28,9.28,0,0,1-.16-1.14l-.17-1.25.34-.72.45-.21.35.72.24,1.47v1.79l-.06,1.33.22.5,1.67.71.85.5.74-.81.62-1.38,1.46-1.05,1.08-.21.21.39a2.24,2.24,0,0,1-.35.66c-.16.13-.52.56-.7.58a2.07,2.07,0,0,0-.6.34l-.73.81-.28.77-.19.42.16.51.56.52.46.65.65.81.64.12.67-.29.92-.6.45-.16.12-.58.32-1,.51-.68.44-.33.45.54-.38,1-.35.55.57-.11.69-.63.25-.43,1-1,.39-.73.45-.15.31.26-.06.58-.53,1.14-1,.89-.8.76-1.31.75-1,.43-1,0,.4.65.6.24.58.7.57.58.52.7s.68.46.85.44a8.73,8.73,0,0,1,1.31.58l.93.09.43.25.21.5.05,1.2-.64,1.15L269,224l-3.91.11-.95.26-.44.84s-2.06,8,0,7.77l1.37.57,2.38.14.76.79.43,1.63.37,1.64.45.54.15,1,.63,1.21.38,1.06.26,1.7v1.33l-.54,1-.46.68-.83.42-.34-1.24-.42-.83.18-1.28.5-.21.06-1.22-.21-.44-.53-.76-.61-1.73-.59-1.44-.4-.6-1.06-.31-1.82.22,1.23,1.5.42.94.51,3.18.11,3.16-.28.77-.26.88-.53,1.2-.61.92-.66.35-.61.28-.38-1-.18-2.06,1-.55.77-.41.12-1.22-.55-2.37-.28-1.24-.47-.76L263,240l-4.2.72-.87-.1-.64-.11s-.42-.2-.66-.35-1-.54-1-.54l-.55-.35a19.07,19.07,0,0,1-15,2.64,7.56,7.56,0,0,1-7.06,5.46l-.33,1.46-.91,1.35a7.11,7.11,0,0,1-.87,2c-.32.2-.69,1.27-.69,1.27l-.34.66,0,.92s-.44.9-.61.92a4.23,4.23,0,0,0-.72.24l-.6-.24-.29-1.3-.27-1.12.44-.85.71-.46,1-1.53.66-1.61.46-1.36.41-1.19.37-1.07.07-.52,1.24-.23.55-.28.77-.47.4-.67-1.51.48-.94.49-1.3.29-1.16.56-.52-.13-.74,2.14-.53,1.14-.52.62-.51.68-.6,1.09-.55,1-.16,1.39-.67.92-.79-.44-.41-1.41-.27-1.12.16-.82.71-.41s3.43-3.53,3.24-6.33l.2-1,1,.08,1.75-.44,1.34-1.78,1.1-2.46.45-1.48.44-.84.2-1.06.73-1.44a1.6,1.6,0,0,0-.49-.36,6.4,6.4,0,0,1-1-1.07Z"/><path class="cls-2" d="M302.33,226.45l1.61-.08,1.46.08.82.45s6.32-2.4,8.95-1.82l2.47-2.6.77-1.15,1.7-2.13.34-1.57-.15-.72-.23-.74-.5-1.53-.8-1.49v-1.88a2.25,2.25,0,0,1-.56-.25,3.9,3.9,0,0,0-.91-.29l-.47-.42-.6-.63-.36-.54.64-.48,1.05-.3,1,0,.79.18.21-.17-.45-.22-.66-.44-.62-.51-.95.1-.94.24H314.1l-.72-.27-1.13-.54-.76-.27-.79-.61.23-.37.65-.06.86.56.85.38.86.22.72-.11h.85l.32-.27-.58-.4-.58-.44-.62-.74-.31-.47-.07-.26L313,204l-.85-.07-.78-.46-.69-.39-.53-.6L310,202l.39-.35.74.46.5.45.4.5.55.17.53-.09.13-.24-.22-.71-.27-.78-.49-.6-.45-.65,0-.76.11-.51.48.25.27.4.24.4.26.74.62.82.43,1.15.15.41s.58.36.63.51.52.91.52.91l.35-.65s0-.85,0-1-.19-1.17-.19-1.17l-.08-.37.23-.37.56.21.13.56.23,1.09-.08,1.12-.31,1.15.54.75.56.25.56.21.6.21.35.47.61.28s.55.18.57.29.42.38.42.38.49.26.59.17.25-.18.25-.18h.15l.23-.45.42-.39.27-.37.42-.39a1.05,1.05,0,0,0,0-.38c0-.31,0-.77,0-1a3.37,3.37,0,0,1,.05-1c.06-.16.55-.24.55-.24a1.9,1.9,0,0,1,.32.46c0,.12,0,.81.05.92a2.17,2.17,0,0,1-.1.51s-.05.27.11.3a.69.69,0,0,0,.37-.12,1.38,1.38,0,0,0,.24-.64c0-.23,0-.61,0-.73a8.21,8.21,0,0,1,.17-1c0-.12.58-.37.58-.37l.35.08.12.79v.7s-.26.45-.32.6-.55,1-.55,1a1.8,1.8,0,0,0-.42.47,4.63,4.63,0,0,1-1,.83l-.73.38.05.46.78-.31.59.17.52.21a8.45,8.45,0,0,1,.71.55c.13.14.52.21.61.36s.89.06.89.06l1.11-.07,1,0,.57,0,.44.18.2.41-.08.73-.38.81-.74.69-.91.51s-.76.47-.86.55a14.12,14.12,0,0,1-1.34.48l-.39.35,0,.35.09.45.62.44s5.3,4.53,3.32,9.69l-.26.49-.11.39.53.33.89-.36.83-.08.82-.24,1.1-.15,1.05.47.63,1.28.55,1.64.4.92.66,2,.31.77.25.59.11.72.13,1.22.07.76-.85-.07-1.09-.54-.62-.44-.3-1.08.59-.56.31-.42-.32-.81-.25-.67-.88-1.45-.71-1.34-.25-.52-1.59.55-1.27.43-1.15.39,0,.38,1,.17.85.49,1,.24.75.54.37.69,0,.62-1.4,4.4-.7.65s-.19.44-.37.54a9,9,0,0,0-.79.54L329,239l-.67.26-.19-.37-.37-1.46.58-1.1.94-.13.81,0,.33-.84.46-1.93v-1.19l-.84-.34-1.49-.23-1.93-.12-1.49,0-1.16,0s.15,1.45-9.12,1.69l-.63,1L313,235.4l-1.11,1.19-1.19,1.15s-.78.28-1.22.4a8,8,0,0,1-1,.18l-.18,1.67-.2,1.09-.55.63-.45.82-.83,1.7-.72,1.26a7.87,7.87,0,0,1-.26,1.18,6,6,0,0,0-.19,1.13l0,.85-.55.63s-.59.71-.71.65-1.22-1.45-1.22-1.45l.22-1.25.34-.42.39-.73s.59-.56.58-.72a3.83,3.83,0,0,1,.41-.88l.54-1.09.35-2.23.29-1.3-.17-1a5.15,5.15,0,0,0-1.07.11,5.38,5.38,0,0,1-1.23,0l-1,.18L301,240.38c-.14.13-3.9,3.93-4,5.28l-.19.78-.46.74-.69.76a9.39,9.39,0,0,1-.47,1.09c-.1.12-.59.63-.73.76l-.7.65-.58-.09-.46-1.49.15-1.52.46-.81.88,0,.69-.06.45-1.2.77-1.19.7-1s.4-1.3.39-1.42.3-1.26.3-1.26l.15-1.13.43-.69.43-.28s5.09-1.74,4.67-4c0,0-.68-5.12,1.25-5.47l.08-.35-.52-.14-.95-.29-.54-.44-.4-.54Z"/><path class="cls-2" d="M283.84,228.31l1.61.08,1.45.23.76.53s6.54-1.76,9.1-.91l2.71-2.34.88-1.07,1.91-1.94.5-1.53-.08-.73-.15-.76-.35-1.57-.64-1.57.19-1.87a2,2,0,0,1-.54-.31,4.4,4.4,0,0,0-.88-.38l-.42-.46-.53-.68-.31-.58.69-.42,1.07-.19,1,.15.77.27.22-.15-.42-.27-.61-.5-.57-.57h-1l-.95.15-1.87-.19-.69-.34-1.07-.65-.73-.35-.72-.68.26-.35h.65l.81.65.8.46.84.31.72,0,.85.08.34-.23-.54-.46-.53-.5-.54-.8-.26-.5,0-.27h-.88l-.84-.15-.73-.53-.65-.46-.46-.65-.11-.5.42-.31.69.54.46.5.34.53.54.23.53,0,.15-.23-.15-.72-.19-.81-.42-.64-.38-.69,0-.77.15-.49.46.3.23.42.19.42.19.77.53.88.31,1.18.11.42s.54.42.58.57.42,1,.42,1l.42-.61s.11-.84.11-1-.07-1.18-.07-1.18l0-.38.27-.35.53.27.08.57.11,1.11-.19,1.11-.42,1.11.46.8.53.31.54.26.57.27.31.5.57.34s.54.23.54.35.38.42.38.42.46.3.57.23l.27-.16h.15l.27-.42.46-.34.3-.35.46-.34a1,1,0,0,0,0-.38c0-.31.08-.77.08-1a3.44,3.44,0,0,1,.15-.95c.08-.15.57-.19.57-.19a1.94,1.94,0,0,1,.27.49c0,.12,0,.81,0,.92a2.57,2.57,0,0,1-.15.5s-.08.27.08.3a.71.71,0,0,0,.38-.07,1.46,1.46,0,0,0,.3-.61c0-.23.08-.61.08-.73a8.46,8.46,0,0,1,.27-.95c0-.12.61-.31.61-.31l.34.11,0,.81-.08.68s-.3.42-.38.58-.65.95-.65.95a2.15,2.15,0,0,0-.46.42,4.35,4.35,0,0,1-1.1.73l-.77.31v.45l.8-.23.58.23.49.27a7.59,7.59,0,0,1,.65.61c.12.16.5.27.58.42s.88.16.88.16l1.1,0,1,.08.57,0,.42.23.16.42-.16.72-.46.77-.8.61-1,.42s-.81.38-.92.46a13.06,13.06,0,0,1-1.38.34l-.42.31-.07.34,0,.46.57.5s4.81,5,2.33,10l-.31.46-.15.38.5.39.92-.27h.84l.84-.15,1.11,0,1,.57.5,1.34.38,1.68.3,1,.46,2.06.23.8.19.61,0,.73v2l-.84-.16-1-.65-.58-.49-.19-1.11.65-.5.35-.38-.23-.84-.19-.69-.73-1.53-.57-1.41-.19-.54-1.65.39-1.3.3-1.18.27v.38l1,.27.81.57,1,.35.69.61.31.72,0,.61-1.84,4.25-.76.57s-.23.42-.42.5-.84.46-.84.46l-.73.45-.69.2-.15-.39L308,241.8l.69-1,1,0,.8,0,.42-.8.65-1.87.11-1.19-.8-.42-1.45-.38-1.91-.31-1.49-.11-1.15-.15s0,1.45-9.25.76l-.72.92-1.34,1.07-1.23,1.07-1.29,1s-.81.19-1.27.27a8.06,8.06,0,0,1-1,.07l-.34,1.65-.31,1.07-.61.57-.53.76-1,1.61-.84,1.18a8.43,8.43,0,0,1-.38,1.15,6.68,6.68,0,0,0-.31,1.11l-.11.84-.61.57s-.65.65-.77.58-1.07-1.57-1.07-1.57l.35-1.22.38-.39L283,248s.65-.5.65-.65a4,4,0,0,1,.49-.85l.65-1,.58-2.18.42-1.26-.08-1a4.73,4.73,0,0,0-1.07,0,5.14,5.14,0,0,1-1.22-.15l-1,.07s-1.22,1-1.37,1.11-4.28,3.52-4.47,4.86l-.27.76-.53.69-.77.69s-.46.91-.57,1l-.8.69-.77.57-.57-.15-.31-1.53.31-1.49.53-.77.88.12h.69l.57-1.15.88-1.11.8-1s.54-1.26.54-1.38.42-1.22.42-1.22l.27-1.11.49-.65.46-.23s5.24-1.22,5.05-3.55c0,0-.16-5.16,1.79-5.32l.12-.34-.5-.19-.92-.38-.49-.5-.35-.57Z"/><path class="cls-2" d="M341.55,216.55l1.39-.41,1.31-.24.81.24s5.07-3.44,7.51-3.48l1.63-2.79.44-1.18,1.05-2.23,0-1.45-.28-.6-.36-.61-.76-1.24-1-1.15-.39-1.65a1.65,1.65,0,0,1-.54-.11,4,4,0,0,0-.87-.06l-.49-.27-.67-.43-.43-.4.47-.56.86-.48.92-.18h.74l.15-.19-.44-.11-.67-.24-.66-.32-.82.28-.77.41-1.66.39-.69-.09-1.1-.24-.73-.08-.82-.37.13-.37.55-.2.88.32.82.16h.81l.61-.25.74-.18.23-.3-.6-.23-.6-.27-.69-.53-.38-.34-.11-.22-.75.26-.77.12-.78-.24-.69-.2-.58-.42-.25-.4.27-.38.75.25.54.29.45.36.53,0,.44-.2.06-.24-.34-.57-.4-.63-.55-.43-.53-.48-.2-.66v-.47l.48.12.32.29.29.31.39.59.71.6.62.92.22.33a2.43,2.43,0,0,1,.66.32c.08.12.64.69.64.69l.18-.65s-.15-.75-.19-.85-.41-1-.41-1l-.15-.31.13-.38.54.07.23.47.43.91.16,1,0,1.07.63.55.55.1.53.07.57.06.41.34.59.12s.53,0,.56.14.45.24.45.24.49.13.56,0,.19-.21.19-.21l.13,0,.1-.44.29-.43.16-.39.29-.43a.94.94,0,0,0-.08-.33c-.09-.27-.16-.68-.23-.88a3.11,3.11,0,0,1-.15-.86c0-.15.43-.33.43-.33s.35.25.38.34.2.7.24.8a2.58,2.58,0,0,1,0,.47s0,.25.16.24a.61.61,0,0,0,.3-.18,1.3,1.3,0,0,0,.08-.61c-.06-.2-.11-.55-.14-.65a6.44,6.44,0,0,1-.06-.89c0-.11.43-.44.43-.44h.33l.27.68.14.61s-.14.45-.16.6-.27,1-.27,1a1.7,1.7,0,0,0-.27.49,4.06,4.06,0,0,1-.73,1l-.56.49.13.39.62-.43.56,0,.5.08a6.23,6.23,0,0,1,.74.33c.14.1.5.08.61.19s.8-.13.8-.13l1-.3.84-.21.5-.14.43.07.25.32.09.66-.17.79-.51.76-.69.64s-.57.57-.65.67a12,12,0,0,1-1.07.7l-.27.38,0,.32.16.38.64.26s5.61,2.89,4.94,7.84l-.12.48,0,.37.54.18.7-.5.72-.25.68-.38.93-.36,1,.2.82,1,.83,1.32.54.73,1,1.63.44.61.34.47.25.61.36,1.05.22.65-.76.12-1.07-.25-.64-.26-.49-.89.41-.62.18-.43-.45-.65-.36-.53L370,212.85l-.9-1-.33-.4-1.29.81-1,.65-.93.58.11.32.9-.05.85.25h.92l.77.32.48.53.14.54-.31,4.17-.48.71a1.33,1.33,0,0,1-.22.55c-.14.12-.58.64-.58.64l-.49.61-.53.37-.24-.28-.64-1.21.29-1.09.8-.31.7-.21.12-.81v-1.79l-.25-1.05-.81-.12-1.36.1L364,216l-1.31.34-1,.21s.43,1.24-7.69,3.39l-.35,1-.82,1.31-.73,1.27-.81,1.27s-.63.4-1,.6a6.92,6.92,0,0,1-.86.37l.2,1.51,0,1-.35.67-.23.82-.38,1.66-.37,1.26a6.48,6.48,0,0,1,0,1.1,5.91,5.91,0,0,0,.07,1l.15.75-.35.67s-.37.75-.49.72-1.37-1-1.37-1l-.07-1.15.21-.43.19-.73s.41-.62.36-.75a3.88,3.88,0,0,1,.18-.86l.25-1.08-.15-2,0-1.2-.36-.83a4.57,4.57,0,0,0-.91.32,4.85,4.85,0,0,1-1.09.23l-.83.36s-.75,1.21-.85,1.35-2.62,4.27-2.39,5.47v.74l-.25.74-.45.82a8.23,8.23,0,0,1-.19,1c-.06.13-.38.68-.48.83l-.48.71-.54,0-.71-1.22-.18-1.36.23-.81.78-.16.59-.21.15-1.15.43-1.21.4-1.05s.09-1.24,0-1.33,0-1.17,0-1.17l-.1-1,.23-.7.33-.34s4.11-2.59,3.26-4.53c0,0-1.66-4.36,0-5.07v-.33h-.48l-.9-.06-.57-.28-.46-.39Z"/><path class="cls-3" d="M87.23,230.55c16-5.77,32.71-11.56,49.54-9.36,14.92,1.95,28.87,10.11,43.91,9.66,9.68-.29,19.11-4.17,28.78-3.51,5.28.36,11.82,1.44,17.12,1.38a42.48,42.48,0,0,0,8.12-.62,112.75,112.75,0,0,1,32.24-.86,41.42,41.42,0,0,0,9.17.41c7.59-.49,16.56-4.05,23.82-6.33,5.89-1.86,12.07-2.6,18.14-3.78a128.34,128.34,0,0,0,40.26-15.13"/><path class="cls-3" d="M85.22,232.23c16-5.76,32.71-11.56,49.55-9.35,14.91,2,28.86,10.11,43.9,9.66,9.68-.29,19.12-4.17,28.78-3.52,5.29.37,10.45,2.08,15.75,2a103.11,103.11,0,0,0,10.56-.34c10.69-1.37,20.49-2.79,31.17-1.78,3.76.35,7.51,1.07,11.27.83,7.6-.5,14.46-4.47,21.72-6.76,5.9-1.85,12.07-2.59,18.14-3.77a128.66,128.66,0,0,0,40.27-15.14"/><circle class="cls-4" cx="362.21" cy="195.48" r="0.57"/><circle class="cls-5" cx="362.93" cy="194.93" r="1.53"/><path class="cls-6" d="M368.74,226c.31,0,1.64-.61.93-.61-.32,0-1.64.61-.93.61Z"/><path class="cls-6" d="M362.25,230.56c.42,0,1.57-.63.61-.63-.42,0-1.57.63-.61.63Z"/><path class="cls-6" d="M361.56,234.65c.81,0,1.14-1,.15-1-.81,0-1.13,1-.15,1Z"/><path class="cls-6" d="M354.24,234.25c.85,0,1.1-1.12.12-1.12s-1.1,1.12-.12,1.12Z"/><path class="cls-6" d="M354.46,238.16c.46,0,1.56-.69.6-.69-.46,0-1.57.69-.6.69Z"/><path class="cls-6" d="M341.16,241.32c.83,0,1.12-1,.13-1-.82,0-1.11,1-.13,1Z"/><path class="cls-6" d="M343,245.84c.61,0,1.52-.91.54-.91-.6,0-1.51.91-.54.91Z"/><path class="cls-6" d="M330.85,249.41c.48,0,1.55-.72.58-.72-.48,0-1.55.72-.58.72Z"/><path class="cls-6" d="M327.23,244.52c.29,0,1.63-.57.94-.57-.29,0-1.63.57-.94.57Z"/><path class="cls-6" d="M322.6,249.89c.5,0,1.55-.76.58-.76-.51,0-1.56.76-.58.76Z"/><path class="cls-6" d="M317.31,255.11c.43,0,1.57-.65.61-.65-.44,0-1.57.65-.61.65Z"/><path class="cls-6" d="M314.34,251.64c.82,0,1.11-1,.13-1s-1.12,1-.13,1Z"/><path class="cls-6" d="M310.24,247.91c.62,0,1.51-.93.53-.93-.62,0-1.51.93-.53.93Z"/><path class="cls-6" d="M306.32,252.89c.54,0,1.54-.8.57-.8-.54,0-1.54.8-.57.8Z"/><path class="cls-6" d="M301,255.77c.82,0,1.11-1.05.13-1.05-.82,0-1.12,1.05-.13,1.05Z"/><path class="cls-6" d="M291.92,254.17c.31,0,1.64-.6.94-.6-.32,0-1.64.6-.94.6Z"/><path class="cls-6" d="M283.85,257.7c.52,0,1.54-.79.57-.79-.52,0-1.55.79-.57.79Z"/><path class="cls-6" d="M276,260.38c.43,0,1.57-.64.61-.64-.43,0-1.57.64-.61.64Z"/><path class="cls-6" d="M270.77,256c.82,0,1.11-1.06.13-1.06-.82,0-1.12,1.06-.13,1.06Z"/><path class="cls-6" d="M269.41,254.3c.57,0,1.53-.87.55-.87-.57,0-1.52.87-.55.87Z"/><path class="cls-6" d="M261.38,260.47c.55,0,1.54-.83.56-.83-.55,0-1.53.83-.56.83Z"/><path class="cls-6" d="M290.25,259c.45,0,1.57-.67.61-.67-.45,0-1.57.67-.61.67Z"/><path class="cls-6" d="M265.78,265.4c.31,0,1.64-.6.94-.6-.31,0-1.64.6-.94.6Z"/><path class="cls-6" d="M253.11,257c.44,0,1.56-.67.6-.67-.45,0-1.57.67-.6.67Z"/><path class="cls-6" d="M249,264.8c.51,0,1.55-.77.58-.77-.51,0-1.55.77-.58.77Z"/><path class="cls-6" d="M231.55,262.45c.44,0,1.57-.66.61-.66-.45,0-1.57.66-.61.66Z"/><path class="cls-6" d="M216,264.37c.55,0,1.54-.83.56-.83-.55,0-1.53.83-.56.83Z"/><path class="cls-6" d="M201.08,268c.54,0,1.53-.83.56-.83-.55,0-1.54.83-.56.83Z"/><path class="cls-6" d="M213.7,260.06c.61,0,1.51-.92.54-.92-.61,0-1.52.92-.54.92Z"/><path class="cls-6" d="M220.84,261.52a1.51,1.51,0,0,0,1-.28c.14-.16.27-.35-.09-.35a1.51,1.51,0,0,0-1,.28c-.14.16-.27.35.09.35Z"/><path class="cls-6" d="M225.16,266.68c.57,0,1.52-.87.55-.87-.58,0-1.53.87-.55.87Z"/><path class="cls-6" d="M194.19,263.82c.85,0,1.1-1.11.12-1.11s-1.1,1.11-.12,1.11Z"/><path class="cls-6" d="M178,260.6a1.6,1.6,0,0,0,1-.27c.13-.17.26-.36-.1-.36a1.51,1.51,0,0,0-1,.28c-.14.16-.27.35.09.35Z"/><path class="cls-6" d="M184.15,268.62c.32,0,1.64-.61.94-.61-.32,0-1.65.61-.94.61Z"/><path class="cls-6" d="M196.93,268.58c.8,0,1.13-1,.14-1-.8,0-1.13,1-.14,1Z"/><path class="cls-6" d="M171.48,265.24c.49,0,1.56-.73.59-.73-.48,0-1.56.73-.59.73Z"/><path class="cls-6" d="M153.4,267c.66,0,1.5-1,.52-1-.65,0-1.49,1-.52,1Z"/><path class="cls-6" d="M151.58,256c.3,0,1.64-.57.95-.57-.3,0-1.63.57-.95.57Z"/><path class="cls-6" d="M140.08,260.69c.53,0,1.54-.8.57-.8-.53,0-1.55.8-.57.8Z"/><path class="cls-6" d="M134.1,263.55c.81,0,1.13-1,.14-1-.81,0-1.12,1-.14,1Z"/><path class="cls-6" d="M124.92,258.54c.43,0,1.58-.63.62-.63-.43,0-1.58.63-.62.63Z"/><path class="cls-6" d="M119,264c.82,0,1.12-1,.14-1-.82,0-1.12,1-.14,1Z"/><path class="cls-6" d="M107.74,263.56c.82,0,1.11-1.05.13-1.05-.82,0-1.12,1.05-.13,1.05Z"/><path class="cls-6" d="M96.05,264.29c.85,0,1.1-1.12.11-1.12-.84,0-1.09,1.12-.11,1.12Z"/><path class="cls-6" d="M155.9,260.61c.85,0,1.09-1.11.11-1.11s-1.09,1.11-.11,1.11Z"/><path class="cls-6" d="M82.3,261.64c.58,0,1.53-.87.55-.87-.58,0-1.52.87-.55.87Z"/><path class="cls-6" d="M74.73,267.73c.85,0,1.09-1.13.11-1.13s-1.09,1.13-.11,1.13Z"/><path class="cls-6" d="M66,262.62c.8,0,1.13-1,.14-1-.8,0-1.13,1-.14,1Z"/><path class="cls-6" d="M58,261.24c.66,0,1.5-1,.52-1-.65,0-1.49,1-.52,1Z"/><path class="cls-6" d="M49.26,261.09c.45,0,1.57-.69.6-.69-.45,0-1.56.69-.6.69Z"/><path class="cls-6" d="M45.84,265.66c.84,0,1.09-1.12.11-1.12s-1.1,1.12-.11,1.12Z"/><path class="cls-6" d="M35.73,261c.82,0,1.13-1,.14-1-.82,0-1.12,1-.14,1Z"/><path class="cls-6" d="M28.4,260.66c.5,0,1.56-.75.59-.75-.5,0-1.56.75-.59.75Z"/><path class="cls-6" d="M19.48,259.8c.57,0,1.52-.86.55-.86-.58,0-1.53.86-.55.86Z"/><path class="cls-6" d="M12.13,260c.51,0,1.54-.77.57-.77-.51,0-1.55.77-.57.77Z"/><path class="cls-6" d="M24.28,263.82c.84,0,1.1-1.1.12-1.1s-1.1,1.1-.12,1.1Z"/><path class="cls-6" d="M14,262.6c.63,0,1.51-1,.53-1-.63,0-1.5,1-.53,1Z"/><path class="cls-6" d="M5.92,262.92c.46,0,1.57-.68.6-.68-.46,0-1.56.68-.6.68Z"/><path class="cls-6" d="M45.86,266.73c.63,0,1.5-1,.52-1-.63,0-1.5,1-.52,1Z"/><path class="cls-6" d="M26.37,253.89c.64,0,1.5-1,.52-1-.64,0-1.5,1-.52,1Z"/><path class="cls-6" d="M15.58,253.18c.61,0,1.52-.92.54-.92-.6,0-1.51.92-.54.92Z"/><path class="cls-6" d="M8.25,252.29c.65,0,1.5-1,.53-1-.64,0-1.5,1-.53,1Z"/><path class="cls-6" d="M32.56,244.48c.63,0,1.5-.95.53-.95-.63,0-1.51.95-.53.95Z"/><path class="cls-6" d="M24.5,245.27c.46,0,1.56-.69.6-.69-.47,0-1.57.69-.6.69Z"/><path class="cls-6" d="M17.41,246.49c.56,0,1.53-.84.56-.84-.57,0-1.54.84-.56.84Z"/><path class="cls-6" d="M35.11,239.27c.32,0,1.64-.62.93-.62-.32,0-1.64.62-.93.62Z"/><path class="cls-6" d="M23.36,241.4c.49,0,1.55-.75.58-.75-.49,0-1.55.75-.58.75Z"/><path class="cls-6" d="M120.58,238.6c.85,0,1.1-1.11.12-1.11s-1.1,1.11-.12,1.11Z"/><path class="cls-6" d="M108.42,238.15c.45,0,1.57-.67.6-.67-.45,0-1.57.67-.6.67Z"/><path class="cls-6" d="M174.92,251.62c.81,0,1.12-1,.14-1-.81,0-1.13,1-.14,1Z"/><path class="cls-6" d="M196.71,239.56c.48,0,1.55-.73.58-.73-.48,0-1.55.73-.58.73Z"/><path class="cls-6" d="M183.46,227.34c.32,0,1.64-.6.94-.6-.32,0-1.64.6-.94.6Z"/><path class="cls-6" d="M205.42,234.22c.83,0,1.11-1.06.13-1.06s-1.11,1.06-.13,1.06Z"/><path class="cls-6" d="M148.32,230.39c.49,0,1.56-.74.59-.74-.49,0-1.56.74-.59.74Z"/><path class="cls-6" d="M268,237.89c.83,0,1.11-1.07.13-1.07-.83,0-1.11,1.07-.13,1.07Z"/><path class="cls-6" d="M258.18,230.48c.61,0,1.52-.92.54-.92-.61,0-1.51.92-.54.92Z"/><path class="cls-6" d="M247,214c.63,0,1.51-.94.53-.94-.62,0-1.51.94-.53.94Z"/><path class="cls-6" d="M262.07,251.22c.85,0,1.09-1.13.11-1.13s-1.1,1.13-.11,1.13Z"/><path class="cls-6" d="M304.05,226.38c.65,0,1.5-1,.52-1-.65,0-1.49,1-.52,1Z"/><path class="cls-6" d="M248.1,225.92c.64,0,1.5-1,.52-1-.64,0-1.49,1-.52,1Z"/><path class="cls-6" d="M333.39,220.14c.58,0,1.52-.88.55-.88-.59,0-1.53.88-.55.88Z"/><path class="cls-6" d="M338,242.18c.62,0,1.51-.94.53-.94-.62,0-1.5.94-.53.94Z"/><path class="cls-6" d="M244.68,263.08c.28,0,1.62-.54.95-.54-.28,0-1.63.54-.95.54Z"/><path class="cls-6" d="M227.9,233.79c.85,0,1.09-1.12.11-1.12s-1.09,1.12-.11,1.12Z"/><path class="cls-6" d="M280,230c.59,0,1.52-.88.55-.88-.59,0-1.52.88-.55.88Z"/><path class="cls-6" d="M170.14,239.44c.63,0,1.5-1,.52-1-.63,0-1.5,1-.52,1Z"/><path class="cls-6" d="M175.84,244.76c.82,0,1.11-1,.13-1s-1.11,1-.13,1Z"/><path class="cls-6" d="M160.26,250.85c.56,0,1.54-.84.56-.84-.55,0-1.53.84-.56.84Z"/><path class="cls-6" d="M148.13,252.29c.64,0,1.5-1,.52-1-.64,0-1.5,1-.52,1Z"/><path class="cls-6" d="M253.34,250.94c.82,0,1.12-1,.14-1-.82,0-1.12,1-.14,1Z"/><path class="cls-6" d="M236.88,250.48c.3,0,1.64-.56,1-.56-.29,0-1.63.56-1,.56Z"/><path class="cls-6" d="M324.25,238.1c.3,0,1.63-.57.94-.57-.3,0-1.63.57-.94.57Z"/><path class="cls-6" d="M355.64,226.58c.61,0,1.51-.92.53-.92-.61,0-1.51.92-.53.92Z"/><path class="cls-6" d="M361.17,223c.3,0,1.63-.58.94-.58-.31,0-1.64.58-.94.58Z"/><path class="cls-6" d="M149.69,257.88c.47,0,1.57-.69.6-.69-.46,0-1.56.69-.6.69Z"/><path class="cls-6" d="M131.35,259c.47,0,1.56-.7.6-.7-.47,0-1.56.7-.6.7Z"/><path class="cls-6" d="M115.55,260c.56,0,1.53-.84.56-.84-.56,0-1.54.84-.56.84Z"/><path class="cls-6" d="M117.82,257.66c.47,0,1.57-.7.6-.7-.47,0-1.56.7-.6.7Z"/><path class="cls-6" d="M108.22,257.31c.61,0,1.52-.92.54-.92-.61,0-1.52.92-.54.92Z"/><path class="cls-6" d="M65.77,253.69c.82,0,1.12-1,.14-1-.82,0-1.12,1-.14,1Z"/><path class="cls-6" d="M91.47,267.11c.54,0,1.54-.81.56-.81-.54,0-1.54.81-.56.81Z"/><path class="cls-6" d="M86,244.34c.44,0,1.56-.67.6-.67-.44,0-1.57.67-.6.67Z"/><path class="cls-6" d="M53,238.46c.56,0,1.53-.84.56-.84-.56,0-1.54.84-.56.84Z"/><path class="cls-6" d="M117.36,242.73c.44,0,1.57-.66.61-.66-.44,0-1.57.66-.61.66Z"/><path class="cls-6" d="M105,250c.3,0,1.64-.58.94-.58-.3,0-1.64.58-.94.58Z"/><path class="cls-6" d="M101.79,242.84c.58,0,1.53-.87.56-.87-.58,0-1.53.87-.56.87Z"/><path class="cls-6" d="M100.18,253.34c.52,0,1.54-.78.57-.78-.52,0-1.54.78-.57.78Z"/><path class="cls-6" d="M87.79,238.82c.84,0,1.11-1.09.12-1.09-.83,0-1.1,1.09-.12,1.09Z"/><path class="cls-6" d="M43.53,235.87c.46,0,1.56-.69.6-.69-.46,0-1.57.69-.6.69Z"/><path class="cls-6" d="M43.54,242.11c.53,0,1.55-.79.57-.79-.52,0-1.54.79-.57.79Z"/><path class="cls-6" d="M47,250.72c.3,0,1.63-.59.94-.59-.31,0-1.64.59-.94.59Z"/><path class="cls-6" d="M85,265.89c.85,0,1.1-1.12.12-1.12s-1.1,1.12-.12,1.12Z"/><path class="cls-6" d="M73.85,263.09c.29,0,1.63-.56,1-.56-.29,0-1.63.56-1,.56Z"/><path class="cls-6" d="M130.91,264.74h.22a.77.77,0,0,0,.3-.06.89.89,0,0,0,.25-.14.52.52,0,0,0,.17-.19.49.49,0,0,0,.08-.21V264a.46.46,0,0,0-.17-.24l-.15-.07a.7.7,0,0,0-.35-.05H131a.72.72,0,0,0-.29.06.82.82,0,0,0-.26.14.49.49,0,0,0-.16.19.32.32,0,0,0-.08.21v.15a.41.41,0,0,0,.17.24l.14.07a.72.72,0,0,0,.36.05Z"/><path class="cls-6" d="M155,262.74c.52,0,1.55-.78.57-.78-.52,0-1.54.78-.57.78Z"/><path class="cls-6" d="M181.17,262.87c.31,0,1.64-.59.94-.59-.31,0-1.64.59-.94.59Z"/><path class="cls-6" d="M223.77,268.25c.53,0,1.55-.79.57-.79-.52,0-1.54.79-.57.79Z"/><path class="cls-6" d="M252,266.41c.52,0,1.54-.79.57-.79-.53,0-1.55.79-.57.79Z"/><path class="cls-6" d="M281.32,261.34c.48,0,1.55-.73.59-.73-.48,0-1.56.73-.59.73Z"/><path class="cls-6" d="M304.7,254.2c.44,0,1.57-.67.6-.67-.44,0-1.57.67-.6.67Z"/><path class="cls-6" d="M335.26,247.06c.32,0,1.64-.61.93-.61-.31,0-1.64.61-.93.61Z"/></svg>