<svg id="Layer_1" data-name="Layer 1" xmlns="http://www.w3.org/2000/svg" xmlns:xlink="http://www.w3.org/1999/xlink" viewBox="0 0 533.26 332.3"><defs><style>.cls-1,.cls-16{fill:#f1f2f2;}.cls-1,.cls-2,.cls-21,.cls-3,.cls-4,.cls-5,.cls-7{stroke:#231f20;}.cls-1,.cls-10,.cls-11,.cls-12,.cls-13,.cls-14,.cls-15,.cls-16,.cls-2,.cls-3,.cls-4,.cls-5,.cls-6,.cls-7,.cls-8,.cls-9{stroke-linecap:round;stroke-linejoin:round;}.cls-2{fill:#414042;}.cls-3{fill:url(#Fading_Sky);}.cls-12,.cls-13,.cls-15,.cls-4,.cls-7,.cls-8,.cls-9{fill:none;}.cls-5{fill:#be1e2d;}.cls-14,.cls-6{fill:#231f20;}.cls-6{stroke:#a7a9ac;}.cls-10,.cls-11,.cls-14,.cls-15,.cls-6{stroke-width:0.25px;}.cls-7,.cls-8{stroke-width:4px;}.cls-8{stroke:#58595b;}.cls-10,.cls-11,.cls-12,.cls-13,.cls-14,.cls-15,.cls-16,.cls-9{stroke:#414042;}.cls-16,.cls-21,.cls-9{stroke-width:0.5px;}.cls-10{fill:url(#White_Black);}.cls-11{fill:url(#White_Black-2);}.cls-12{stroke-width:2px;}.cls-17{fill:#8dc63f;}.cls-18{fill:#39b54a;opacity:0.61;}.cls-19,.cls-20{fill:#fff200;}.cls-20{opacity:0.5;}.cls-21{fill:#fff;stroke-miterlimit:10;}</style><linearGradient id="Fading_Sky" x1="294.78" y1="183.97" x2="294.78" y2="151.88" gradientUnits="userSpaceOnUse"><stop offset="0" stop-color="#2484c6"/><stop offset="1" stop-color="#2484c6" stop-opacity="0"/></linearGradient><linearGradient id="White_Black" x1="152.71" y1="142.46" x2="158.84" y2="142.46" gradientUnits="userSpaceOnUse"><stop offset="0" stop-color="#fff"/><stop offset="1" stop-color="#231f20"/></linearGradient><linearGradient id="White_Black-2" x1="158.53" y1="140.54" x2="166.02" y2="140.54" xlink:href="#White_Black"/></defs><path class="cls-1" d="M173,324l.84-47.19,86.39.83v-44H404.76l5,39.88,39.87,9.13,1.66,19.94S388.15,322.29,173,324Z" transform="translate(-39.37 -49.6)"/><path class="cls-2" d="M41.63,320.27l32.52,60.27,414.93.86S603.36,316,563.81,289.27c0,0-356,55.11-523.94,15.5Z" transform="translate(-39.37 -49.6)"/><polygon class="cls-3" points="220.84 183.97 206.12 151.88 383.43 152.37 365.39 183.97 220.84 183.97"/><line class="cls-4" x1="248.41" y1="152.25" x2="268.84" y2="184.15"/><line class="cls-4" x1="294.28" y1="151.38" x2="294.28" y2="183.08"/><line class="cls-4" x1="332.13" y1="151.91" x2="319.68" y2="183.71"/><line class="cls-4" x1="367.09" y1="152.67" x2="356.62" y2="184.49"/><polygon class="cls-5" points="139.51 226.17 149.41 152.13 178.88 152.37 207.86 225.67 208.6 227.41 139.51 226.17"/><polygon class="cls-5" points="199.44 151.88 206.37 138.26 382.19 138.26 389.62 151.88 199.44 151.88"/><circle class="cls-6" cx="195.14" cy="253.52" r="11.14"/><circle class="cls-6" cx="231.05" cy="253.02" r="11.14"/><circle class="cls-6" cx="284.54" cy="206.16" r="11.14"/><circle class="cls-6" cx="336.54" cy="206.16" r="11.14"/><circle class="cls-7" cx="304.09" cy="283.34" r="9.29"/><circle class="cls-7" cx="275.86" cy="285.2" r="9.29"/><circle class="cls-7" cx="247.63" cy="286.69" r="9.29"/><circle class="cls-7" cx="219.03" cy="288.17" r="9.29"/><circle class="cls-7" cx="192.66" cy="288.17" r="9.29"/><circle class="cls-7" cx="162.94" cy="287.8" r="9.29"/><circle class="cls-7" cx="136.2" cy="287.8" r="9.29"/><circle class="cls-7" cx="105" cy="287.06" r="9.29"/><circle class="cls-7" cx="75.65" cy="285.57" r="9.29"/><circle class="cls-7" cx="13.99" cy="278.14" r="9.29"/><circle class="cls-7" cx="44.45" cy="283.34" r="9.29"/><circle class="cls-7" cx="331.69" cy="282.63" r="9.29"/><circle class="cls-7" cx="359.92" cy="280.51" r="9.29"/><circle class="cls-7" cx="419.35" cy="274.56" r="9.29"/><circle class="cls-7" cx="447.95" cy="271.59" r="9.29"/><circle class="cls-7" cx="475.81" cy="268.25" r="9.29"/><circle class="cls-7" cx="503.3" cy="267.13" r="9.29"/><circle class="cls-7" cx="390.75" cy="278.28" r="9.29"/><path class="cls-8" d="M56.19,343.28s123.57,39.5,488-1.73" transform="translate(-39.37 -49.6)"/><polyline class="cls-9" points="286.25 263.25 286.74 240.46 318.44 239.97 318.44 261.26"/><polygon class="cls-10" points="155.74 151.38 155.74 139.99 152.71 135.84 155.12 133.48 158.53 137.57 158.84 138.56 158.84 151.44 155.74 151.38"/><polygon class="cls-11" points="162.24 151.36 162.24 137.54 158.53 132.5 161.48 129.65 165.64 134.61 166.02 135.81 166.02 151.44 162.24 151.36"/><line class="cls-12" x1="295.65" y1="1" x2="295.65" y2="136.95"/><polyline class="cls-13" points="296.4 41.12 284.88 40.74 284.51 29.6"/><polygon class="cls-14" points="295.53 29.85 309.4 29.73 295.53 37.65 295.53 29.85"/><polygon class="cls-14" points="296.52 59.32 310.39 59.19 296.52 67.12 296.52 59.32"/><path class="cls-15" d="M306.05,139v46.81" transform="translate(-39.37 -49.6)"/><polyline class="cls-9" points="294.91 73.99 284.14 73.81 283.95 65.26"/><rect class="cls-16" x="310.14" y="132.68" width="58.88" height="5.39"/><rect class="cls-14" x="347.47" y="132.31" width="25.63" height="5.76"/><rect class="cls-17" x="348.82" y="132.68" width="3.81" height="5.01"/><ellipse class="cls-18" cx="352.37" cy="135.09" rx="4.48" ry="4.18"/><rect class="cls-19" x="297.42" y="17.34" width="5.94" height="12.07" rx="0.46"/><ellipse class="cls-20" cx="306.61" cy="22.46" rx="12.44" ry="12.82"/><path class="cls-19" d="M323.14,112.9c3.22,0,3.22-5,0-5s-3.22,5,0,5Z" transform="translate(-39.37 -49.6)"/><path class="cls-19" d="M323.88,78.36c3.22,0,3.22-5,0-5s-3.22,5,0,5Z" transform="translate(-39.37 -49.6)"/><path class="cls-19" d="M340.6,107c3.21,0,3.22-5,0-5s-3.23,5,0,5Z" transform="translate(-39.37 -49.6)"/><path class="cls-19" d="M174.56,275.6c3.21,0,3.22-5,0-5s-3.22,5,0,5Z" transform="translate(-39.37 -49.6)"/><circle class="cls-21" cx="240.12" cy="125.99" r="6.87"/><line class="cls-21" x1="240.12" y1="132.87" x2="240.03" y2="138.16"/></svg>